<svg width="216" height="216" viewBox="0 0 216 216" fill="none" xmlns="http://www.w3.org/2000/svg">
<path d="M103.5 198V156.15C99 163.17 90 171.81 72.27 178.29C72.27 178.29 76.77 162.9 89.46 152.55C77.76 155.07 60.12 154.71 36 144C36 144 58.23 131.31 83.52 134.73C69.21 126 51.3 108.72 37.53 72.99C37.53 72.99 78.03 84.06 98.19 118.26C79.92 74.16 108 18 108 18C129.87 67.23 125.19 99.9 118.08 117.9C138.33 83.97 178.47 72.99 178.47 72.99C164.7 108.72 146.79 126 132.48 134.73C157.77 131.31 180 144 180 144C155.88 154.71 138.24 155.07 126.54 152.55C139.23 162.9 143.73 178.29 143.73 178.29C126 171.81 117 163.17 112.5 156.15V198H103.5Z" fill="black"/>
</svg>
