<svg width="217" height="217" viewBox="0 0 217 217" fill="none" xmlns="http://www.w3.org/2000/svg">
<path d="M208 64.9999H175.44C182.483 77.2036 185.302 91.3904 183.46 105.36C181.617 119.329 175.216 132.3 165.25 142.26C156.73 150.95 145.64 159.18 133.4 166.77C132.634 167.236 131.733 167.432 130.843 167.325C129.953 167.218 129.124 166.814 128.49 166.18L93.6501 131.34C92.8923 130.582 91.9898 129.984 90.9964 129.581C90.0029 129.179 88.9387 128.98 87.867 128.997C86.7952 129.014 85.7377 129.246 84.7574 129.679C83.777 130.112 82.8938 130.739 82.1601 131.52C80.7483 133.104 80.0028 135.172 80.0792 137.292C80.1556 139.413 81.048 141.422 82.5701 142.9L112.45 172.78C112.896 173.225 113.231 173.77 113.427 174.37C113.622 174.969 113.674 175.606 113.576 176.229C113.479 176.852 113.235 177.444 112.866 177.955C112.496 178.466 112.011 178.882 111.45 179.17C71.7401 199.79 29.0001 213.54 22.7801 215.48C19.8046 216.866 16.4748 217.304 13.2422 216.733C10.0097 216.162 7.03083 214.611 4.70974 212.29C2.38865 209.969 0.837623 206.99 0.267032 203.758C-0.30356 200.525 0.133895 197.195 1.52007 194.22C4.25007 185.51 30.5201 103.95 66.3801 60.8699C66.7364 60.4437 67.1777 60.0963 67.6758 59.85C68.1738 59.6038 68.7177 59.4639 69.2728 59.4395C69.8278 59.415 70.3819 59.5064 70.8997 59.708C71.4175 59.9095 71.8876 60.2167 72.2801 60.6099L114.33 102.67C115.108 103.447 116.038 104.056 117.061 104.458C118.085 104.86 119.18 105.046 120.279 105.006C121.378 104.966 122.456 104.699 123.448 104.223C124.439 103.747 125.321 103.072 126.04 102.24C127.355 100.653 128.023 98.6298 127.912 96.5726C127.8 94.5153 126.918 92.5755 125.44 91.1399L84.0801 49.7799C83.6583 49.36 83.3356 48.8512 83.1355 48.2906C82.9353 47.7301 82.8628 47.132 82.9231 46.5399C82.9835 45.9478 83.1752 45.3766 83.4844 44.868C83.7935 44.3594 84.2123 43.9262 84.7101 43.5999C94.6321 37.0504 106.182 33.3941 118.066 33.0408C129.949 32.6876 141.696 35.6514 151.99 41.5999V8.99994C151.988 7.90234 152.211 6.81596 152.646 5.8084C153.082 4.80084 153.72 3.89365 154.521 3.14326C155.322 2.39288 156.269 1.81535 157.303 1.44662C158.336 1.0779 159.435 0.925846 160.53 0.999937C162.592 1.17928 164.509 2.13329 165.895 3.66974C167.281 5.20618 168.033 7.21089 168 9.27994V37.6899L194.34 11.3399C195.083 10.5967 195.966 10.0071 196.937 9.60479C197.908 9.20253 198.949 8.99549 200 8.99549C201.051 8.99549 202.092 9.20253 203.063 9.60479C204.034 10.0071 204.917 10.5967 205.66 11.3399C206.403 12.0832 206.993 12.9656 207.395 13.9368C207.797 14.9079 208.005 15.9488 208.005 16.9999C208.005 18.0511 207.797 19.092 207.395 20.0631C206.993 21.0343 206.403 21.9167 205.66 22.6599L179.31 48.9999H207.72C209.789 48.9669 211.794 49.7192 213.33 51.1053C214.867 52.4915 215.821 54.4084 216 56.4699C216.073 57.5642 215.92 58.6618 215.55 59.6944C215.181 60.727 214.603 61.6727 213.853 62.4726C213.103 63.2726 212.196 63.9097 211.189 64.3445C210.182 64.7792 209.097 65.0023 208 64.9999Z" fill="black"/>
</svg>
