<svg width="188" height="192" viewBox="0 0 188 192" fill="none" xmlns="http://www.w3.org/2000/svg">
<path d="M155.636 0.322998C153.527 0.322998 151.628 0.45378 150.025 0.69003C142.009 1.88815 137.58 4.9805 133.614 8.98409C131.294 11.3339 129.184 14.0677 126.78 16.8267C135.175 17.7253 141.756 17.8435 151.628 14.6752L156.733 13.051L156.606 18.3708C156.564 19.5942 156.48 21.9567 156.606 24.0366C156.648 24.8213 156.733 25.3528 156.859 25.8338C166.267 28.0739 177.658 27.1374 186.855 21.9778C187.741 17.5186 187.066 14.2491 185.378 11.5364C183.522 8.52003 180.273 6.03519 176.139 4.19581C169.938 1.44097 161.922 0.322998 155.636 0.322998ZM149.012 23.3067C144.203 24.4627 139.9 24.8972 135.723 24.9225C130.956 32.4657 126.105 39.8063 121 46.9782C123.995 44.9953 127.623 43.8141 131.462 43.8141C135.808 43.8141 139.816 45.2907 143.022 47.7797C145.764 42.1266 148.253 36.3891 150.447 30.4828C150.067 29.8416 149.856 29.1666 149.688 28.6308C149.266 27.2386 149.097 25.8802 149.012 24.5217C148.97 24.0957 149.012 23.7286 149.012 23.3067ZM157.239 33.7313C139.605 80.6016 105.095 118.486 52.15 157.509L52.0656 157.594L51.9391 157.678C36.8359 167.255 29.9594 173.878 26.8333 179.152C24.3189 183.328 23.8717 186.914 23.5384 191.513C33.25 192.272 46.1594 190.458 58.5203 186.872C72.3578 182.822 85.6891 176.62 93.4938 170.25C141.123 129.834 158.842 87.0985 175.717 33.9C169.473 34.9969 163.145 34.8703 157.239 33.7313ZM131.462 51.4078C125.134 51.4078 120.114 56.4282 120.114 62.7563C120.114 67.8188 123.32 72.0375 127.877 73.5563C132.137 67.3969 135.977 61.111 139.478 54.6563C137.411 52.6313 134.584 51.4078 131.462 51.4078ZM113.28 57.4828C108.766 63.3891 103.998 69.211 98.9781 74.9063C101.973 73.05 105.475 71.9953 109.188 71.9953C111.423 71.9953 113.617 72.375 115.6 73.0922C113.659 70.0969 112.52 66.5532 112.52 62.7563C112.52 60.9422 112.773 59.1703 113.28 57.4828ZM109.188 79.5891C102.522 79.5891 97.2063 84.9047 97.2063 91.5703C97.2063 96.4641 100.075 100.641 104.252 102.497C109.652 96.7594 114.672 90.9797 119.313 85.1157C117.203 81.7828 113.448 79.5891 109.188 79.5891ZM91.6797 82.8375C85.9 88.9125 79.6984 94.861 72.9906 100.725C75.6484 99.5016 78.6016 98.7844 81.7234 98.7844C85.6891 98.7844 89.4016 99.9235 92.5656 101.864C90.7094 98.8688 89.6125 95.325 89.6125 91.5703C89.6125 88.4485 90.3719 85.4953 91.6797 82.8375ZM81.7234 106.378C74.4672 106.378 68.6453 112.2 68.6453 119.456C68.6453 124.013 70.9656 128.02 74.4672 130.341C81.175 124.73 87.4609 119.119 93.3672 113.466C91.1734 109.247 86.8281 106.378 81.7234 106.378ZM64.7641 107.686C58.1406 113.044 51.0531 118.359 43.4172 123.591C45.9906 122.409 48.8172 121.777 51.8125 121.777C55.3563 121.777 58.6891 122.663 61.6422 124.266C61.2625 122.705 61.0516 121.102 61.0516 119.456C61.0516 115.069 62.4016 111.019 64.7641 107.686ZM37.6375 127.43C33.7563 129.961 29.7484 132.492 25.5719 135.023L25.5297 135.066H25.4875C20.5136 137.892 16.2653 142.659 12.7553 148.27C15.9067 145.655 19.9398 144.094 24.3231 144.094C26.8206 144.094 29.2 144.6 31.3516 145.528C31.225 144.516 31.1406 143.503 31.1406 142.448C31.1406 136.542 33.6297 131.227 37.6375 127.43ZM51.8125 129.37C44.5563 129.37 38.7344 135.192 38.7344 142.448C38.7344 147.047 41.0547 151.055 44.5984 153.375C45.6109 152.742 46.6234 152.067 47.6781 151.392C53.4578 147.131 59.0266 142.87 64.3422 138.652C62.6969 133.252 57.7609 129.37 51.8125 129.37ZM24.3231 151.73C18.4169 151.73 13.713 156.413 13.713 162.319C13.713 167.423 17.2483 171.642 22.0324 172.655C24.8209 168.858 28.8625 164.85 34.7688 160.336C33.8406 155.4 29.5375 151.73 24.3231 151.73ZM6.12766 161.897C3.50782 168.773 1.79922 175.566 0.744537 180.797C5.67626 181.514 11.5403 181.388 17.8009 180.628C17.9359 180.248 18.0794 179.869 18.2313 179.489C11.1902 176.958 6.11922 170.166 6.11922 162.319V161.897H6.12766Z" fill="black"/>
</svg>
