<svg width="186" height="196" viewBox="0 0 186 196" fill="none" xmlns="http://www.w3.org/2000/svg">
<path d="M98.4843 0.352783C97.1765 0.399189 96.0796 0.352783 95.2781 0.441377C94.0968 0.546845 93.2953 0.63122 92.2406 1.38216L91.8187 30.6265C93.0843 31.1243 94.5187 31.5968 95.9109 31.6854C97.6406 31.812 98.7796 31.5968 99.7921 30.6687L98.4843 0.352783ZM54.8625 16.3418C54.9046 18.852 54.989 20.9867 55.4953 22.3072C56.4656 24.5093 58.4484 26.4753 66.464 28.1797L75.9562 30.1962L67.7296 35.1828C60.7687 39.4437 52.8796 43.3672 46.0031 46.3625C48.6187 46.6578 51.1921 46.9531 53.6812 46.9531C61.1906 46.9109 68.2781 45.3078 77.0109 39.3172L83.7187 34.7187L83.8875 24.4461C73.1296 22.0751 64.2703 19.5186 54.8625 16.3418ZM131.306 19.0798C123.08 21.9022 116.794 23.7078 107.512 25.0536L107.892 32.989L107.175 34.0437C104.306 38.2625 99.4125 39.6547 95.4046 39.4015C91.3968 39.1484 87.9796 37.7562 85.5328 36.1953L84.1828 35.3093L83.2546 42.9031C82.4531 50.1172 82.3687 54.8422 81.0609 60.7906C87.2203 56.4031 91.3546 52.8172 96.4593 45.0547L99.4968 40.5406L102.914 44.7593C107.512 50.2437 115.064 54.4203 123.375 56.9937C120.97 54.2515 118.777 50.8765 118.312 46.4468L117.722 40.4984L123.586 42.439C132.277 45.2234 134.934 45.0125 137.887 44C139.111 43.6203 140.714 42.9031 142.359 42.1015L108.314 30.4536L119.831 27.0153C125.822 25.2265 128.648 23.1762 130.209 21.1343C130.631 20.5015 131.011 19.8097 131.306 19.0798ZM156.07 45.6875L155.311 45.8562C147.97 47.6281 145.059 49.864 140.545 51.3828C137.423 52.3531 133.964 52.564 129.281 51.7625C129.45 52.0156 129.703 52.2687 129.914 52.5218C132.023 54.8422 135.061 57.4156 137.845 61.0437L143.414 68.3L134.175 67.2031C121.898 65.7265 109.116 61.339 100.298 53.3234C93.4218 62.3515 87.0093 66.1484 76.1671 73.8265L65.2828 81.589L70.05 69.3125C73.5937 60.4109 73.9734 56.1078 74.564 49.7797C67.2656 53.3234 60.3468 54.6312 53.6812 54.6734C45.7921 54.6734 38.2828 53.1125 30.3937 51.9734C30.225 51.9734 30.0562 52.0156 29.8875 52.0578C4.64246 71.5484 0.803401 100.784 0.832932 115.466C0.904651 155.206 12.1096 194.23 94.6875 195.622C157.505 196.719 185.559 153.687 185.18 113.694C184.842 88.1281 179.991 61.2125 156.07 45.6875ZM47.0578 60.1578C52.6265 60.0734 58.1953 62.014 58.9968 65.389C20.1506 83.0656 20.3573 106.648 14.6114 131.539C9.92856 107.577 11.5275 79.8593 37.9031 62.5203C40.2656 60.9172 43.725 60.2 47.0578 60.1578Z" fill="black"/>
</svg>
